<svg id="Layer_1" data-name="Layer 1" xmlns="http://www.w3.org/2000/svg" viewBox="0 0 350.65 312.72"><defs><style>.cls-1{fill:#854d3d;opacity:0.75;isolation:isolate;}</style></defs><title>glazing</title><path id="Path_143" data-name="Path 143" class="cls-1" d="M151.32,30.49c31.23,1.36,29.45,11.62,83.52,23,56,11.78,73.7,4.08,85,19.92,15.27,21.3-9.27,45.64,7.66,81.21,10.93,22.94,26,23,27,38.53C355.93,215,327,225,292.31,258.81c-46.77,45.7-41.36,73.74-66.66,82.75-39.29,14-64.74-74.25-132.55-82-32.43-3.7-46.36,25.4-65.89,15.32-22-11.37-29.61-56-17.62-88.11,9.48-25.44,25.05-26.58,32.94-54.4,8-28.17-5.29-36.49,2.3-55.93C57.72,43.4,111.26,28.74,151.32,30.49Z" transform="translate(-3.92 -30.35)"/></svg>